<svg width="341" height="426" viewBox="0 0 341 426" fill="none" xmlns="http://www.w3.org/2000/svg">
<rect width="341" height="426" fill="#292929" fill-opacity="0.3"/>
<circle cx="170.5" cy="212.5" r="90.5" fill="black" fill-opacity="0.6"/>
<path d="M134 210.5C132.619 210.5 131.5 211.619 131.5 213C131.5 214.381 132.619 215.5 134 215.5V210.5ZM207.768 214.768C208.744 213.791 208.744 212.209 207.768 211.232L191.858 195.322C190.882 194.346 189.299 194.346 188.322 195.322C187.346 196.299 187.346 197.882 188.322 198.858L202.464 213L188.322 227.142C187.346 228.118 187.346 229.701 188.322 230.678C189.299 231.654 190.882 231.654 191.858 230.678L207.768 214.768ZM134 215.5H206V210.5H134V215.5Z" fill="#C6FF00"/>
</svg>
