<svg width="29" height="29" viewBox="0 0 29 29" fill="none" xmlns="http://www.w3.org/2000/svg">
<path d="M24.0373 3.96799C21.4647 1.40968 18.0404 0 14.4003 0C10.7601 0 7.33583 1.40968 4.75739 3.96799C2.18478 6.52631 0.767226 9.93159 0.767226 13.5515C0.767226 16.3651 1.61893 19.0452 3.23483 21.3309L0.0555301 28.1762C-0.0494741 28.3967 -0.00280557 28.6577 0.172202 28.8318C0.283039 28.942 0.434712 29 0.586385 29C0.668055 29 0.749725 28.9826 0.831395 28.9478L8.13503 25.5947C10.0601 26.5867 12.2185 27.1088 14.4061 27.1088C18.0463 27.1088 21.4706 25.6991 24.0432 23.1408C26.6158 20.5825 28.0333 17.1772 28.0333 13.5573C28.0333 9.93739 26.6158 6.53211 24.0373 3.96799ZM14.4003 25.9544C12.3119 25.9544 10.2468 25.4323 8.43254 24.4403C8.2692 24.3533 8.07669 24.3475 7.90752 24.4229L1.78227 27.2364L4.44238 21.5165C4.52988 21.3251 4.50654 21.0988 4.38404 20.9306C2.78564 18.7842 1.93977 16.2374 1.93977 13.5631C1.93394 6.72354 7.5225 1.16023 14.4003 1.16023C21.2722 1.16023 26.8666 6.72354 26.8666 13.5573C26.8666 20.3911 21.2722 25.9544 14.4003 25.9544Z" fill="#1C1C1C"/>
<path d="M19.6661 15.37C19.5737 15.3535 19.4813 15.3371 19.3831 15.3262C18.9152 15.2714 18.3838 15.2112 17.8236 15.4411C17.4828 15.578 17.1131 15.8408 16.7896 16.1638C16.2005 15.912 15.6864 15.6328 15.2532 15.3426C14.7507 15.0032 14.3521 14.6418 14.0633 14.264C14.0518 14.2476 14.0345 14.2312 14.0229 14.2148C13.3991 13.5687 12.9312 12.5778 12.6251 11.2693C13.0236 11.0393 13.3702 10.7546 13.5839 10.4644C13.9305 9.9936 13.9825 9.4899 14.0229 9.04096C14.0287 8.95336 14.0345 8.86029 14.0345 8.77269C14.0345 7.66128 13.5781 6.69222 12.8215 6.18852C12.2381 5.7998 11.4699 5.7998 10.9154 5.7998H10.8981C10.4417 5.7998 9.99699 5.89288 9.58111 6.07355C9.07859 6.29255 8.64539 6.63199 8.33348 7.05904C8.01579 7.48608 7.81941 7.9843 7.7732 8.50442C7.6519 9.74723 7.80208 10.9627 8.21218 12.1233C8.64539 13.3443 9.38472 15.151 10.7768 16.7059C11.7876 17.9487 13.168 19.0546 14.9875 20.0784C16.1023 20.7026 17.3268 21.0967 18.6264 21.2446C18.7535 21.261 18.8806 21.2665 19.0077 21.2665C19.4293 21.2665 19.851 21.1843 20.238 21.0256C20.7463 20.823 21.1852 20.489 21.5145 20.0729C21.7859 19.7335 21.9823 19.3283 22.0747 18.9068L22.0805 18.8904C22.196 18.3757 22.3578 17.664 22.0747 17.0398C21.7109 16.2241 20.8098 15.5999 19.6661 15.37ZM20.9484 18.6549L20.9426 18.6714C20.8849 18.9342 20.7636 19.1915 20.5903 19.405C20.3824 19.6678 20.0993 19.8758 19.7816 20.0072C19.464 20.1386 19.1116 20.1824 18.7651 20.1441C17.6214 20.0127 16.547 19.6678 15.5767 19.1258C13.8785 18.1731 12.6078 17.1548 11.6836 16.016C11.6778 16.0105 11.672 15.9996 11.6663 15.9941C10.3955 14.5816 9.71396 12.9008 9.30963 11.762C8.94574 10.7437 8.81867 9.68153 8.92264 8.59202C8.95152 8.26352 9.07859 7.94598 9.27498 7.6777C9.47714 7.40943 9.74861 7.19591 10.0663 7.05356C10.332 6.93859 10.6092 6.87836 10.8981 6.87836H10.9212C10.9269 6.87836 10.9327 6.87836 10.9385 6.87836C11.3601 6.87836 11.88 6.88384 12.1572 7.06999C12.6944 7.42586 12.8792 8.2033 12.8792 8.76174C12.8792 8.81649 12.8792 8.87671 12.8735 8.93146C12.833 9.34208 12.8042 9.5994 12.6367 9.8184C12.4691 10.0429 12.111 10.3002 11.724 10.4699C11.4814 10.5739 11.3486 10.8203 11.4006 11.0667C11.7356 12.7584 12.319 14.0505 13.1392 14.9156C13.4973 15.3864 13.9825 15.8244 14.5774 16.2241C15.1723 16.6237 15.8944 16.996 16.7261 17.3245C16.9687 17.4231 17.2517 17.3464 17.4077 17.1493C17.6618 16.8263 17.9968 16.5526 18.2683 16.4431C18.5282 16.339 18.8055 16.3609 19.2329 16.4102C19.2965 16.4157 19.3542 16.4266 19.412 16.4376C19.9838 16.5526 20.7463 16.892 21.0062 17.4614C21.1506 17.768 21.0408 18.2607 20.9484 18.6549Z" fill="#1C1C1C"/>
</svg>
