<svg width="24" height="24" viewBox="0 0 24 24" fill="none" xmlns="http://www.w3.org/2000/svg">
<path d="M18.2422 19.9995C18.1207 19.9996 18.0023 19.9604 17.905 19.8877C17.8076 19.815 17.7364 19.7127 17.702 19.5961C17.6677 19.4795 17.672 19.3549 17.7143 19.241C17.7567 19.1271 17.8348 19.03 17.9369 18.9641C18.4669 18.615 18.9177 18.1584 19.2599 17.6239C19.5836 17.1323 19.6946 16.7344 19.5907 16.4404C19.3796 15.8426 18.2429 15.411 17.2766 15.1016C16.8499 14.9635 16.3933 14.9462 15.9573 15.0516C15.5214 15.157 15.1232 15.3811 14.8068 15.699L14.4408 16.0654C14.3753 16.1311 14.2945 16.1795 14.2057 16.2064C13.9544 16.2814 12.5756 16.5304 10.0226 13.977C9.97024 13.9248 9.92872 13.8628 9.90036 13.7945C9.87201 13.7262 9.85738 13.653 9.85731 13.5791C9.85724 13.5052 9.87173 13.432 9.89996 13.3636C9.92819 13.2953 9.96959 13.2332 10.0218 13.1809C10.074 13.1286 10.1361 13.087 10.2043 13.0587C10.2726 13.0303 10.3458 13.0157 10.4197 13.0156C10.4937 13.0156 10.5669 13.03 10.6352 13.0583C10.7035 13.0865 10.7656 13.1279 10.8179 13.1801C12.4927 14.8553 13.4729 15.0908 13.7954 15.1181L14.0114 14.9021C14.4739 14.4382 15.0556 14.111 15.6922 13.9568C16.3289 13.8026 16.9958 13.8274 17.6193 14.0284C18.8812 14.4326 20.2597 14.9561 20.6512 16.0639C20.8788 16.707 20.7262 17.4394 20.2012 18.2389C19.773 18.906 19.2094 19.4758 18.5471 19.9114C18.456 19.9694 18.3502 20 18.2422 19.9995ZM15.5396 20.754C12.9648 20.754 10.0087 19.2653 7.37094 16.6271C7.31722 16.5752 7.27437 16.5132 7.24489 16.4445C7.21541 16.3759 7.19989 16.3021 7.19924 16.2274C7.19859 16.1527 7.21282 16.0787 7.24111 16.0095C7.26939 15.9404 7.31116 15.8776 7.36397 15.8248C7.41679 15.772 7.47959 15.7302 7.54872 15.7019C7.61785 15.6736 7.69192 15.6594 7.76661 15.6601C7.84129 15.6607 7.91511 15.6762 7.98373 15.7057C8.05236 15.7352 8.11443 15.778 8.16632 15.8318C10.6556 18.3214 13.5176 19.7363 15.8126 19.6223C15.8866 19.6175 15.9608 19.6276 16.0308 19.652C16.1008 19.6764 16.1652 19.7146 16.2203 19.7643C16.2753 19.814 16.3198 19.8742 16.3511 19.9414C16.3825 20.0086 16.4001 20.0814 16.4028 20.1555C16.4104 20.3045 16.3584 20.4504 16.2584 20.5611C16.1584 20.6718 16.0186 20.7382 15.8696 20.7458C15.7604 20.751 15.6502 20.754 15.5396 20.754Z" fill="#5B5B5B"/>
<path d="M7.76967 16.793C7.6958 16.7931 7.62266 16.7785 7.55444 16.7502C7.48622 16.7219 7.42427 16.6803 7.37217 16.628C4.53417 13.7904 3.00342 10.4956 3.27754 7.81475C3.35542 6.99984 3.61973 6.21377 4.05 5.51734C4.48028 4.82091 5.06499 4.2328 5.75892 3.7985C6.56029 3.2735 7.29267 3.12088 7.93392 3.3485C9.04167 3.74 9.56554 5.1185 9.96942 6.38038C10.1707 7.00383 10.1956 7.67082 10.0414 8.30755C9.88722 8.94429 9.5599 9.52597 9.09567 9.98825L8.87404 10.2103C8.90104 10.5001 9.11967 11.4853 10.8177 13.1818C10.9201 13.2878 10.9768 13.4299 10.9755 13.5774C10.9743 13.7249 10.9151 13.866 10.8108 13.9703C10.7065 14.0746 10.5654 14.1337 10.418 14.135C10.2705 14.1363 10.1284 14.0796 10.0223 13.9771C7.46929 11.4245 7.71754 10.0449 7.79292 9.79438C7.81957 9.70547 7.86804 9.62464 7.93392 9.55925L8.30029 9.19288C8.61793 8.87641 8.84184 8.47825 8.94727 8.04245C9.0527 7.60664 9.03553 7.15016 8.89767 6.7235C8.58829 5.75675 8.15667 4.62013 7.55929 4.409C7.26492 4.30513 6.86667 4.41613 6.37542 4.73938C5.82003 5.0807 5.35189 5.54682 5.00818 6.10073C4.66447 6.65464 4.45466 7.28107 4.39542 7.93025C4.15504 10.2778 5.56467 13.2324 8.16604 15.8334C8.24476 15.912 8.29837 16.0123 8.3201 16.1214C8.34182 16.2306 8.33068 16.3437 8.28809 16.4465C8.24549 16.5494 8.17336 16.6372 8.08081 16.699C7.98826 16.7608 7.87946 16.7938 7.76817 16.7938L7.76967 16.793Z" fill="#5B5B5B"/>
</svg>
