<svg width="27" height="27" viewBox="0 0 27 27" fill="none" xmlns="http://www.w3.org/2000/svg">
<path d="M13.5375 2.25C18.8096 2.27072 23.0831 6.57222 23.0624 11.8376V11.9422C22.9912 15.705 20.729 18.8275 18.8442 20.7839C18.3078 21.3433 17.7368 21.88 17.1481 22.3812C16.7954 22.6821 16.2659 22.6407 15.9646 22.2885C15.6633 21.9353 15.7058 21.4065 16.0585 21.1056C16.6038 20.6409 17.1342 20.1417 17.6331 19.6217C19.3105 17.8814 21.3218 15.1298 21.383 11.9116C21.3998 7.49073 17.8781 3.94396 13.5305 3.9262H13.4999C9.1672 3.9262 5.63364 7.43844 5.61685 11.7685C5.69094 13.9075 6.41405 15.9408 7.70913 17.6466C9.22054 19.6592 11.5134 21.7903 13.6926 23.209C14.0818 23.4615 14.1914 23.9805 13.9375 24.3692C13.7775 24.6158 13.5078 24.75 13.2332 24.75C13.0761 24.75 12.9181 24.7066 12.7758 24.6139C10.4425 23.0955 7.98671 20.8125 6.36762 18.6569C4.86509 16.6768 4.02443 14.3139 3.9375 11.8268C3.95824 6.50908 8.24454 2.25 13.4999 2.25H13.5375ZM13.497 8.30633C15.5033 8.30633 17.1362 9.93617 17.1362 11.9409C17.1362 13.9447 15.5033 15.5745 13.497 15.5745C11.4906 15.5745 9.85771 13.9447 9.85771 11.9409C9.85771 11.4772 10.2341 11.1023 10.6974 11.1023C11.1607 11.1023 11.5371 11.4772 11.5371 11.9409C11.5371 13.0192 12.4162 13.8983 13.497 13.8983C14.5777 13.8983 15.4569 13.0192 15.4569 11.9409C15.4569 10.8616 14.5777 9.98254 13.497 9.98254C13.0337 9.98254 12.6573 9.60764 12.6573 9.14493C12.6573 8.68124 13.0337 8.30633 13.497 8.30633Z" fill="#5B5B5B"/>
</svg>
