<svg width="21" height="22" viewBox="0 0 21 22" fill="none" xmlns="http://www.w3.org/2000/svg">
<path d="M19.25 18.3346H1.75C0.784875 18.3346 0 17.5124 0 16.5013V5.5013C0 4.49022 0.784875 3.66797 1.75 3.66797H19.25C20.2151 3.66797 21 4.49022 21 5.5013V16.5013C21 17.5124 20.2151 18.3346 19.25 18.3346ZM1.75 4.58464C1.26744 4.58464 0.875 4.99576 0.875 5.5013V16.5013C0.875 17.0068 1.26744 17.418 1.75 17.418H19.25C19.7326 17.418 20.125 17.0068 20.125 16.5013V5.5013C20.125 4.99576 19.7326 4.58464 19.25 4.58464H1.75Z" fill="#5B5B5B"/>
<path d="M10.5001 13.38L2.82504 8.17742C2.72757 8.11142 2.65912 8.00755 2.63475 7.88868C2.61039 7.7698 2.63209 7.64566 2.6951 7.54355C2.7581 7.44144 2.85725 7.36973 2.97072 7.34421C3.08419 7.31868 3.20269 7.34142 3.30016 7.40742L10.5001 12.2882L17.7 7.40742C17.7975 7.34142 17.916 7.31868 18.0295 7.34421C18.143 7.36973 18.2421 7.44144 18.3051 7.54355C18.3681 7.64566 18.3898 7.7698 18.3654 7.88868C18.3411 8.00755 18.2726 8.11142 18.1752 8.17742L10.5001 13.38ZM2.62554 15.5841C2.5316 15.5842 2.44011 15.5526 2.36462 15.4941C2.28913 15.4355 2.23364 15.353 2.20636 15.2589C2.17907 15.1647 2.18145 15.0638 2.21314 14.9712C2.24482 14.8785 2.30413 14.799 2.38229 14.7444L6.31979 11.9944C6.36759 11.961 6.4212 11.9378 6.47757 11.9261C6.53393 11.9144 6.59194 11.9145 6.64829 11.9262C6.70464 11.938 6.75822 11.9613 6.80597 11.9948C6.85372 12.0283 6.89471 12.0713 6.9266 12.1214C6.95849 12.1715 6.98064 12.2276 6.99181 12.2867C7.00298 12.3457 7.00293 12.4065 6.99168 12.4655C6.98043 12.5246 6.95818 12.5807 6.92622 12.6307C6.89426 12.6807 6.85321 12.7237 6.80541 12.7571L2.86791 15.5071C2.79609 15.5571 2.71179 15.5839 2.62554 15.5841ZM18.3747 15.5841C18.2915 15.5841 18.2071 15.5589 18.1323 15.5071L14.1948 12.7571C14.147 12.7237 14.1059 12.6807 14.074 12.6307C14.042 12.5807 14.0198 12.5246 14.0085 12.4655C13.9973 12.4065 13.9972 12.3457 14.0084 12.2867C14.0196 12.2276 14.0417 12.1715 14.0736 12.1214C14.1055 12.0713 14.1465 12.0283 14.1942 11.9948C14.242 11.9613 14.2956 11.938 14.3519 11.9262C14.4083 11.9145 14.4663 11.9144 14.5226 11.9261C14.579 11.9378 14.6326 11.961 14.6804 11.9944L18.6179 14.7444C18.6961 14.799 18.7554 14.8785 18.7871 14.9712C18.8187 15.0638 18.8211 15.1647 18.7938 15.2589C18.7666 15.353 18.7111 15.4355 18.6356 15.4941C18.5601 15.5526 18.4686 15.5842 18.3747 15.5841Z" fill="#5B5B5B"/>
<rect x="0.5" y="0.5" width="20" height="21" stroke="black"/>
</svg>
